<svg xmlns="http://www.w3.org/2000/svg" xmlns:xlink="http://www.w3.org/1999/xlink" width="128" zoomAndPan="magnify" viewBox="0 0 96 95.999999" height="128" preserveAspectRatio="xMidYMid meet" version="1.0"><path fill="#000000" d="M 75.429688 82.285156 C 75.429688 83.1875 75.339844 84.078125 75.164062 84.960938 C 74.988281 85.84375 74.730469 86.703125 74.382812 87.535156 C 74.039062 88.367188 73.617188 89.15625 73.117188 89.90625 C 72.617188 90.652344 72.046875 91.347656 71.410156 91.984375 C 70.773438 92.621094 70.082031 93.1875 69.332031 93.6875 C 68.585938 94.1875 67.792969 94.613281 66.960938 94.957031 C 66.128906 95.300781 65.273438 95.5625 64.390625 95.738281 C 63.507812 95.914062 62.613281 96 61.714844 96 L 13.714844 96 C 12.8125 96 11.921875 95.914062 11.039062 95.738281 C 10.15625 95.5625 9.296875 95.300781 8.464844 94.957031 C 7.632812 94.613281 6.84375 94.1875 6.09375 93.6875 C 5.347656 93.1875 4.652344 92.621094 4.015625 91.984375 C 3.378906 91.347656 2.8125 90.652344 2.3125 89.90625 C 1.8125 89.15625 1.386719 88.367188 1.042969 87.535156 C 0.699219 86.703125 0.4375 85.84375 0.261719 84.960938 C 0.0859375 84.078125 0 83.1875 0 82.285156 L 0 34.285156 C 0 33.386719 0.0859375 32.492188 0.261719 31.609375 C 0.4375 30.726562 0.699219 29.871094 1.042969 29.039062 C 1.386719 28.207031 1.8125 27.414062 2.3125 26.667969 C 2.8125 25.917969 3.378906 25.226562 4.015625 24.589844 C 4.652344 23.953125 5.347656 23.382812 6.09375 22.882812 C 6.84375 22.382812 7.632812 21.960938 8.464844 21.617188 C 9.296875 21.269531 10.15625 21.011719 11.039062 20.835938 C 11.921875 20.660156 12.8125 20.570312 13.714844 20.570312 L 13.714844 27.429688 C 13.265625 27.429688 12.816406 27.472656 12.375 27.558594 C 11.933594 27.648438 11.507812 27.777344 11.089844 27.949219 C 10.675781 28.121094 10.277344 28.335938 9.90625 28.585938 C 9.53125 28.835938 9.183594 29.117188 8.867188 29.4375 C 8.546875 29.753906 8.261719 30.101562 8.011719 30.476562 C 7.761719 30.851562 7.550781 31.246094 7.378906 31.660156 C 7.207031 32.078125 7.078125 32.507812 6.988281 32.949219 C 6.902344 33.390625 6.855469 33.835938 6.855469 34.285156 L 6.855469 82.285156 C 6.855469 82.734375 6.902344 83.183594 6.988281 83.625 C 7.078125 84.066406 7.207031 84.492188 7.378906 84.910156 C 7.550781 85.324219 7.761719 85.722656 8.011719 86.09375 C 8.261719 86.46875 8.546875 86.816406 8.867188 87.132812 C 9.183594 87.453125 9.53125 87.738281 9.90625 87.988281 C 10.277344 88.238281 10.675781 88.449219 11.089844 88.621094 C 11.507812 88.792969 11.933594 88.921875 12.375 89.011719 C 12.816406 89.097656 13.265625 89.144531 13.714844 89.144531 L 61.714844 89.144531 C 62.164062 89.144531 62.609375 89.097656 63.050781 89.011719 C 63.492188 88.921875 63.921875 88.792969 64.339844 88.621094 C 64.753906 88.449219 65.148438 88.238281 65.523438 87.988281 C 65.898438 87.738281 66.246094 87.453125 66.5625 87.132812 C 66.882812 86.816406 67.164062 86.46875 67.414062 86.09375 C 67.664062 85.722656 67.878906 85.324219 68.050781 84.910156 C 68.222656 84.492188 68.351562 84.066406 68.441406 83.625 C 68.527344 83.183594 68.570312 82.734375 68.570312 82.285156 Z M 75.429688 82.285156 " fill-opacity="1" fill-rule="nonzero"/><path fill="#000000" d="M 34.285156 6.855469 C 33.835938 6.855469 33.390625 6.902344 32.949219 6.988281 C 32.507812 7.078125 32.078125 7.207031 31.660156 7.378906 C 31.246094 7.550781 30.851562 7.761719 30.476562 8.011719 C 30.101562 8.261719 29.753906 8.546875 29.4375 8.867188 C 29.117188 9.183594 28.835938 9.53125 28.585938 9.90625 C 28.335938 10.277344 28.121094 10.675781 27.949219 11.089844 C 27.777344 11.507812 27.648438 11.933594 27.558594 12.375 C 27.472656 12.816406 27.429688 13.265625 27.429688 13.714844 L 27.429688 61.714844 C 27.429688 62.164062 27.472656 62.609375 27.558594 63.050781 C 27.648438 63.492188 27.777344 63.921875 27.949219 64.339844 C 28.121094 64.753906 28.335938 65.148438 28.585938 65.523438 C 28.835938 65.898438 29.117188 66.246094 29.4375 66.5625 C 29.753906 66.882812 30.101562 67.164062 30.476562 67.414062 C 30.851562 67.664062 31.246094 67.878906 31.660156 68.050781 C 32.078125 68.222656 32.507812 68.351562 32.949219 68.441406 C 33.390625 68.527344 33.835938 68.570312 34.285156 68.570312 L 82.285156 68.570312 C 82.734375 68.570312 83.183594 68.527344 83.625 68.441406 C 84.066406 68.351562 84.492188 68.222656 84.910156 68.050781 C 85.324219 67.878906 85.722656 67.664062 86.09375 67.414062 C 86.46875 67.164062 86.816406 66.882812 87.132812 66.5625 C 87.453125 66.246094 87.738281 65.898438 87.988281 65.523438 C 88.238281 65.148438 88.449219 64.753906 88.621094 64.339844 C 88.792969 63.921875 88.921875 63.492188 89.011719 63.050781 C 89.097656 62.609375 89.144531 62.164062 89.144531 61.714844 L 89.144531 13.714844 C 89.144531 13.265625 89.097656 12.816406 89.011719 12.375 C 88.921875 11.933594 88.792969 11.507812 88.621094 11.089844 C 88.449219 10.675781 88.238281 10.277344 87.988281 9.90625 C 87.738281 9.53125 87.453125 9.183594 87.132812 8.867188 C 86.816406 8.546875 86.46875 8.261719 86.09375 8.011719 C 85.722656 7.761719 85.324219 7.550781 84.910156 7.378906 C 84.492188 7.207031 84.066406 7.078125 83.625 6.988281 C 83.183594 6.902344 82.734375 6.855469 82.285156 6.855469 Z M 34.285156 0 L 82.285156 0 C 83.1875 0 84.078125 0.0859375 84.960938 0.261719 C 85.84375 0.4375 86.703125 0.699219 87.535156 1.042969 C 88.367188 1.386719 89.15625 1.8125 89.90625 2.3125 C 90.652344 2.8125 91.347656 3.378906 91.984375 4.015625 C 92.621094 4.652344 93.1875 5.347656 93.6875 6.09375 C 94.1875 6.84375 94.613281 7.632812 94.957031 8.464844 C 95.300781 9.296875 95.5625 10.15625 95.738281 11.039062 C 95.914062 11.921875 96 12.8125 96 13.714844 L 96 61.714844 C 96 62.613281 95.914062 63.507812 95.738281 64.390625 C 95.5625 65.273438 95.300781 66.128906 94.957031 66.960938 C 94.613281 67.792969 94.1875 68.585938 93.6875 69.332031 C 93.1875 70.082031 92.621094 70.773438 91.984375 71.410156 C 91.347656 72.046875 90.652344 72.617188 89.90625 73.117188 C 89.15625 73.617188 88.367188 74.039062 87.535156 74.382812 C 86.703125 74.730469 85.84375 74.988281 84.960938 75.164062 C 84.078125 75.339844 83.1875 75.429688 82.285156 75.429688 L 34.285156 75.429688 C 33.386719 75.429688 32.492188 75.339844 31.609375 75.164062 C 30.726562 74.988281 29.871094 74.730469 29.039062 74.382812 C 28.207031 74.039062 27.414062 73.617188 26.667969 73.117188 C 25.917969 72.617188 25.226562 72.046875 24.589844 71.410156 C 23.953125 70.773438 23.382812 70.082031 22.882812 69.332031 C 22.382812 68.585938 21.960938 67.792969 21.617188 66.960938 C 21.269531 66.128906 21.011719 65.273438 20.835938 64.390625 C 20.660156 63.507812 20.570312 62.613281 20.570312 61.714844 L 20.570312 13.714844 C 20.570312 12.8125 20.660156 11.921875 20.835938 11.039062 C 21.011719 10.15625 21.269531 9.296875 21.617188 8.464844 C 21.960938 7.632812 22.382812 6.84375 22.882812 6.09375 C 23.382812 5.347656 23.953125 4.652344 24.589844 4.015625 C 25.226562 3.378906 25.917969 2.8125 26.667969 2.3125 C 27.414062 1.8125 28.207031 1.386719 29.039062 1.042969 C 29.871094 0.699219 30.726562 0.4375 31.609375 0.261719 C 32.492188 0.0859375 33.386719 0 34.285156 0 Z M 34.285156 0 " fill-opacity="1" fill-rule="nonzero"/></svg>