<svg xmlns="http://www.w3.org/2000/svg" xmlns:xlink="http://www.w3.org/1999/xlink" width="210" zoomAndPan="magnify" viewBox="0 0 157.5 157.499993" height="210" preserveAspectRatio="xMidYMid meet" version="1.0"><path fill="#000000" d="M 136.5 93.941406 L 136.5 112.574219 C 136.5 125.765625 125.765625 136.5 112.574219 136.5 L 44.425781 136.5 C 31.238281 136.5 20.503906 125.761719 20.503906 112.574219 L 20.503906 44.425781 C 20.503906 31.238281 31.238281 20.503906 44.425781 20.503906 L 63.0625 20.503906 C 61.828125 17.3125 61.085938 13.878906 61.085938 10.25 C 61.085938 6.625 61.828125 3.191406 63.0625 0 L 44.425781 0 C 19.929688 0 0 19.929688 0 44.425781 L 0 112.574219 C 0 137.070312 19.929688 157 44.425781 157 L 112.574219 157 C 137.070312 157 157 137.070312 157 112.574219 L 157 93.941406 C 153.8125 95.179688 150.375 95.921875 146.75 95.921875 C 143.125 95.921875 139.6875 95.179688 136.5 93.941406 Z M 136.5 93.941406 " fill-opacity="1" fill-rule="nonzero"/><path fill="#000000" d="M 146.75 0 L 89.5625 0 C 83.902344 0 79.3125 4.589844 79.3125 10.25 C 79.3125 15.914062 83.902344 20.503906 89.5625 20.503906 L 122.003906 20.503906 L 48.929688 93.574219 C 44.925781 97.574219 44.925781 104.070312 48.929688 108.070312 C 50.933594 110.074219 53.554688 111.074219 56.179688 111.074219 C 58.804688 111.074219 61.425781 110.074219 63.425781 108.070312 L 136.5 35 L 136.5 67.441406 C 136.5 73.105469 141.085938 77.695312 146.75 77.695312 C 152.414062 77.695312 157 73.105469 157 67.441406 L 157 10.25 C 157 4.589844 152.414062 0 146.75 0 Z M 146.75 0 " fill-opacity="1" fill-rule="nonzero"/></svg>
